<?xml version="1.0" ?><svg id="Multicolor" viewBox="0 0 100 112" xmlns="http://www.w3.org/2000/svg"><defs><style>.cls-1{fill:#fff0ed;}.cls-2{fill:#9f5ae5;}.cls-3{fill:#ff6196;}.cls-4{fill:#2d86fa;}.cls-5{fill:#bf8df2;}.cls-6{fill:#ff87af;}.cls-7{fill:none;stroke:#45413c;stroke-linecap:round;stroke-linejoin:round;}.cls-8{fill:#45413c;fill-opacity:0.15;}</style></defs><title/><g id="Scene"><g data-name="New Symbol 1" id="New_Symbol_1-41"><circle class="cls-1" cx="50.119" cy="55.793" r="40"/></g><path class="cls-2" d="M68.49,58.919c4.246-4.9,5.607-9.069,5.794-13.75H25.944c.187,4.681,1.549,8.846,5.8,13.75Z"/><path class="cls-3" d="M74.308,43.929a13.89,13.89,0,0,0-5.791-10.8c-8.972-6.708-15.689,2.855-18.4,5.934-1.9-2.159-9.108-12.88-18.4-5.934a13.892,13.892,0,0,0-5.8,10.8c0,.418.007.831.024,1.24h48.34C74.3,44.76,74.308,44.347,74.308,43.929Z"/><path class="cls-4" d="M49.151,73.3a1.709,1.709,0,0,0,1.93,0c8.42-5.77,13.9-10.327,17.409-14.38H31.741C35.251,62.972,40.732,67.529,49.151,73.3Z"/><path class="cls-5" d="M26.3,48.377a13.385,13.385,0,0,1,1.284-3.208h-1.64A23.583,23.583,0,0,0,26.3,48.377Z"/><path class="cls-5" d="M73.923,48.375a23.362,23.362,0,0,0,.358-3.206H72.643A13.417,13.417,0,0,1,73.923,48.375Z"/><path class="cls-6" d="M25.948,45.169h1.64l.07-.125a14.883,14.883,0,0,1,4.058-4.579c6.58-4.918,12.115-.978,15.46,2.508a4.074,4.074,0,0,0,5.893.052c3.462-3.618,8.845-7.495,15.446-2.56a14.869,14.869,0,0,1,4.058,4.579c.023.042.046.084.07.125h1.638l.006-.125q.021-.552.021-1.115v-.008a12.6,12.6,0,0,0-1.671-6.127,14.965,14.965,0,0,0-4.122-4.669,12.18,12.18,0,0,0-3.573-1.905l-.027-.009-.14-.042-.04-.012c-.044-.014-.088-.026-.132-.038l-.049-.014-.127-.034-.054-.013-.122-.031-.057-.013-.121-.027-.048-.01c-.134-.028-.267-.053-.4-.074-.025,0-.049-.009-.074-.012l-.094-.014-.084-.012-.087-.011-.095-.011-.079-.009-.1-.009-.081-.007-.093-.007-.083-.006-.093,0-.08,0-.129,0h-.041l-.172,0h-.174l-.053,0-.12,0-.058,0-.111.006-.061,0-.114.009-.056,0-.117.012-.052,0-.131.015-.036.005c-.114.014-.228.031-.341.05h-.008l-.154.028-.04.007-.126.025-.045.01-.119.026-.048.011-.119.028-.043.011L60,31.087l-.042.011-.144.04-.014,0c-.109.031-.217.064-.325.1l-.027.009-.131.044-.038.014-.119.042-.044.016-.108.041-.054.02-.1.04-.054.021-.112.047-.037.015-.146.062-.005,0-.157.07-.006,0-.144.068-.033.015-.114.056-.051.025-.1.048-.054.028-.093.048-.056.03-.086.046-.061.034-.09.05-.052.029-.111.063-.031.018-.139.083-.055.033-.084.051-.067.042-.07.043c-.025.016-.051.032-.075.049l-.061.038-.077.05-.054.037c-.029.018-.057.037-.085.056l-.045.03-.09.061-.033.024q-.3.207-.59.426l-.006.005-.237.183-.005,0-.115.091,0,0a30.772,30.772,0,0,0-4.18,4.24c-.408.483-.767.916-1.074,1.265h0c-.965-1.1-3.3-4.4-6.576-6.476l-.01-.006-.143-.09-.006,0c-.046-.029-.093-.058-.14-.085l-.017-.011-.14-.083-.01-.005q-.306-.178-.621-.339l-.021-.011-.138-.068-.022-.012-.136-.065-.023-.011-.152-.071,0,0q-.243-.11-.49-.209l-.026-.01c-.043-.017-.088-.035-.132-.051l-.041-.016-.124-.046-.039-.014-.139-.048-.023-.008-.165-.055h0q-.168-.054-.339-.1l-.035-.01-.133-.036-.044-.011-.121-.031-.056-.013-.117-.027-.052-.012-.138-.029-.029-.006c-.117-.023-.233-.044-.352-.063l-.026,0-.143-.021-.056-.007-.121-.016-.054-.006-.119-.013-.064-.006-.116-.01-.058,0-.152-.01h-.022l-.183-.008h-.022c-.051,0-.1,0-.154,0-.021,0-.042,0-.063,0q-.057,0-.114,0h-.072l-.114,0-.064,0-.121,0-.064,0-.121.008-.064,0-.17.015h-.011l-.184.021-.059.008-.122.017-.076.011-.111.018-.079.013-.11.021-.076.014-.118.025-.069.014-.137.032-.052.012-.188.047-.046.013-.142.039-.075.022-.117.036c-.025.007-.051.015-.076.024q-.06.018-.12.039l-.073.024-.123.043-.072.026-.125.047-.072.027-.152.06-.062.026c-.057.023-.114.047-.17.072l-.07.031-.126.056-.081.038-.115.054-.086.042-.114.057-.083.042-.12.063-.079.042-.146.08-.051.028-.2.115-.053.031-.148.09-.072.044-.132.083-.076.049-.127.083-.078.052-.128.087-.078.054-.143.1-.059.042c-.068.049-.137.1-.206.151l-.152.114a14.467,14.467,0,0,0-5.326,8l-.018.078,0,.022c-.057.253-.107.51-.148.768l-.007.043a11.7,11.7,0,0,0-.138,1.615c0,.054,0,.109,0,.164q0,.563.022,1.115C25.943,45.086,25.946,45.128,25.948,45.169Z"/><path class="cls-7" d="M49.151,73.3a1.709,1.709,0,0,0,1.93,0c19.5-13.361,23.235-20.222,23.227-29.37h0a13.89,13.89,0,0,0-5.791-10.8h0c-8.971-6.708-15.689,2.855-18.4,5.934-1.9-2.159-9.108-12.88-18.4-5.934h0a13.892,13.892,0,0,0-5.8,10.8h0C25.91,53.077,29.654,59.938,49.151,73.3Z"/><ellipse class="cls-8" cx="50.114" cy="82.719" rx="15.525" ry="1.725"/></g></svg>